<mxfile host="Electron" agent="Mozilla/5.0 (Windows NT 10.0; Win64; x64) AppleWebKit/537.36 (KHTML, like Gecko) draw.io/26.1.1 Chrome/132.0.6834.210 Electron/34.3.3 Safari/537.36" version="26.1.1">
  <diagram name="Page-1" id="j9eRqYafd_JO8ipRsz4t">
    <mxGraphModel dx="1434" dy="2005" grid="1" gridSize="10" guides="1" tooltips="1" connect="1" arrows="1" fold="1" page="1" pageScale="1" pageWidth="827" pageHeight="1169" math="0" shadow="0">
      <root>
        <mxCell id="0" />
        <mxCell id="1" parent="0" />
        <mxCell id="ikbvhD5BTmwbzsUKauvL-37" style="rounded=0;orthogonalLoop=1;jettySize=auto;html=1;endArrow=classicThin;startFill=0;endFill=1;exitX=0;exitY=0.5;exitDx=0;exitDy=0;entryX=1;entryY=0;entryDx=0;entryDy=-6;entryPerimeter=0;" parent="1" source="ikbvhD5BTmwbzsUKauvL-17" target="ikbvhD5BTmwbzsUKauvL-3" edge="1">
          <mxGeometry relative="1" as="geometry">
            <mxPoint x="120" y="360" as="sourcePoint" />
            <mxPoint x="50" y="510" as="targetPoint" />
          </mxGeometry>
        </mxCell>
        <mxCell id="ikbvhD5BTmwbzsUKauvL-39" style="rounded=0;orthogonalLoop=1;jettySize=auto;html=1;endArrow=classicThin;startFill=0;endFill=1;exitX=0;exitY=0.5;exitDx=0;exitDy=0;entryX=1;entryY=0.3333333333333333;entryDx=0;entryDy=0;entryPerimeter=0;" parent="1" source="ikbvhD5BTmwbzsUKauvL-18" edge="1" target="ikbvhD5BTmwbzsUKauvL-1">
          <mxGeometry relative="1" as="geometry">
            <mxPoint x="330" y="465" as="sourcePoint" />
            <mxPoint x="80" y="530" as="targetPoint" />
          </mxGeometry>
        </mxCell>
        <mxCell id="ikbvhD5BTmwbzsUKauvL-40" style="rounded=0;orthogonalLoop=1;jettySize=auto;html=1;entryX=0;entryY=0.5;entryDx=0;entryDy=0;endArrow=classicThin;startFill=0;endFill=1;exitX=1;exitY=0.1;exitDx=0;exitDy=0;exitPerimeter=0;" parent="1" target="ikbvhD5BTmwbzsUKauvL-19" edge="1" source="ikbvhD5BTmwbzsUKauvL-1">
          <mxGeometry relative="1" as="geometry">
            <mxPoint x="70" y="520" as="sourcePoint" />
          </mxGeometry>
        </mxCell>
        <mxCell id="ikbvhD5BTmwbzsUKauvL-41" style="rounded=0;orthogonalLoop=1;jettySize=auto;html=1;endArrow=classicThin;startFill=0;endFill=1;entryX=0;entryY=0.5;entryDx=0;entryDy=0;exitX=1;exitY=0;exitDx=0;exitDy=-6;exitPerimeter=0;" parent="1" target="ikbvhD5BTmwbzsUKauvL-15" edge="1" source="ikbvhD5BTmwbzsUKauvL-1">
          <mxGeometry relative="1" as="geometry">
            <mxPoint x="70" y="500" as="sourcePoint" />
            <mxPoint x="350" y="125" as="targetPoint" />
          </mxGeometry>
        </mxCell>
        <mxCell id="ikbvhD5BTmwbzsUKauvL-42" style="rounded=0;orthogonalLoop=1;jettySize=auto;html=1;entryX=0;entryY=0.5;entryDx=0;entryDy=0;endArrow=classicThin;startFill=0;endFill=1;exitX=1;exitY=0.57;exitDx=0;exitDy=0;exitPerimeter=0;" parent="1" target="ikbvhD5BTmwbzsUKauvL-14" edge="1" source="ikbvhD5BTmwbzsUKauvL-1">
          <mxGeometry relative="1" as="geometry">
            <mxPoint x="60" y="532" as="sourcePoint" />
          </mxGeometry>
        </mxCell>
        <mxCell id="ikbvhD5BTmwbzsUKauvL-1" value="Student" style="shape=umlActor;verticalLabelPosition=bottom;verticalAlign=top;html=1;outlineConnect=0;points=[[0,0.3333333333333333,0,0,0],[0,0.5,0,0,0],[0,1,0,0,0],[0.25,0.1,0,0,0],[1,0,0,0,-6],[1,0.1,0,0,0],[1,0.3333333333333333,0,0,0],[1,0.57,0,0,0],[1,0.77,0,0,0],[1,1,0,0,0]];" parent="1" vertex="1">
          <mxGeometry x="30" y="490" width="30" height="60" as="geometry" />
        </mxCell>
        <mxCell id="NkEJEfKFvYe5f6atW8bi-65" style="rounded=0;orthogonalLoop=1;jettySize=auto;html=1;entryX=1;entryY=0.5;entryDx=0;entryDy=0;" parent="1" target="ikbvhD5BTmwbzsUKauvL-18" edge="1">
          <mxGeometry relative="1" as="geometry">
            <mxPoint x="740" y="340" as="sourcePoint" />
          </mxGeometry>
        </mxCell>
        <mxCell id="ikbvhD5BTmwbzsUKauvL-2" value="Emotional&amp;nbsp;&lt;div&gt;Pedagogica&lt;span style=&quot;background-color: transparent; color: light-dark(rgb(0, 0, 0), rgb(255, 255, 255));&quot;&gt;l&lt;/span&gt;&lt;/div&gt;&lt;div&gt;&lt;span style=&quot;background-color: transparent; color: light-dark(rgb(0, 0, 0), rgb(255, 255, 255));&quot;&gt;&amp;nbsp;Agent&lt;/span&gt;&lt;/div&gt;" style="shape=umlActor;verticalLabelPosition=bottom;verticalAlign=top;html=1;outlineConnect=0;" parent="1" vertex="1">
          <mxGeometry x="750" y="280" width="30" height="60" as="geometry" />
        </mxCell>
        <mxCell id="ikbvhD5BTmwbzsUKauvL-3" value="Lecturer" style="shape=umlActor;verticalLabelPosition=bottom;verticalAlign=top;html=1;outlineConnect=0;points=[[0,0.3333333333333333,0,0,0],[0,1,0,0,0],[1,0,0,0,-6],[1,0.1,0,0,0],[1,0.3333333333333333,0,0,0],[1,0.58,0,0,0],[1,0.8,0,0,0],[1,1,0,0,0]];" parent="1" vertex="1">
          <mxGeometry x="50" y="80" width="30" height="60" as="geometry" />
        </mxCell>
        <mxCell id="NkEJEfKFvYe5f6atW8bi-36" style="rounded=0;orthogonalLoop=1;jettySize=auto;html=1;exitX=0;exitY=0.5;exitDx=0;exitDy=0;endArrow=classicThin;endFill=1;entryX=1;entryY=0.58;entryDx=0;entryDy=0;entryPerimeter=0;" parent="1" source="ikbvhD5BTmwbzsUKauvL-9" target="ikbvhD5BTmwbzsUKauvL-3" edge="1">
          <mxGeometry relative="1" as="geometry">
            <mxPoint x="90" y="130" as="targetPoint" />
          </mxGeometry>
        </mxCell>
        <mxCell id="NkEJEfKFvYe5f6atW8bi-87" value="" style="rounded=0;orthogonalLoop=1;jettySize=auto;html=1;dashed=1;entryX=0.5;entryY=1;entryDx=0;entryDy=0;" parent="1" source="ikbvhD5BTmwbzsUKauvL-14" target="ikbvhD5BTmwbzsUKauvL-18" edge="1">
          <mxGeometry relative="1" as="geometry" />
        </mxCell>
        <mxCell id="NkEJEfKFvYe5f6atW8bi-88" value="&lt;font style=&quot;font-size: 9px;&quot;&gt;&amp;lt;&amp;lt;include&amp;gt;&amp;gt;&lt;/font&gt;" style="edgeLabel;html=1;align=center;verticalAlign=middle;resizable=0;points=[];" parent="NkEJEfKFvYe5f6atW8bi-87" vertex="1" connectable="0">
          <mxGeometry x="0.1228" relative="1" as="geometry">
            <mxPoint as="offset" />
          </mxGeometry>
        </mxCell>
        <mxCell id="ikbvhD5BTmwbzsUKauvL-14" value="Encourage Student" style="ellipse;whiteSpace=wrap;html=1;" parent="1" vertex="1">
          <mxGeometry x="353" y="740" width="120" height="50" as="geometry" />
        </mxCell>
        <mxCell id="ikbvhD5BTmwbzsUKauvL-15" value="Adapt Learning Path" style="ellipse;whiteSpace=wrap;html=1;" parent="1" vertex="1">
          <mxGeometry x="354" y="120" width="120" height="50" as="geometry" />
        </mxCell>
        <mxCell id="NkEJEfKFvYe5f6atW8bi-46" style="rounded=0;orthogonalLoop=1;jettySize=auto;html=1;exitX=0.5;exitY=1;exitDx=0;exitDy=0;entryX=0.5;entryY=0;entryDx=0;entryDy=0;endArrow=classicThin;endFill=1;dashed=1;" parent="1" source="ikbvhD5BTmwbzsUKauvL-16" target="ikbvhD5BTmwbzsUKauvL-15" edge="1">
          <mxGeometry relative="1" as="geometry" />
        </mxCell>
        <mxCell id="NkEJEfKFvYe5f6atW8bi-47" value="&lt;font style=&quot;font-size: 9px;&quot;&gt;&amp;lt;&amp;lt;include&amp;gt;&amp;gt;&lt;/font&gt;" style="edgeLabel;html=1;align=center;verticalAlign=middle;resizable=0;points=[];" parent="NkEJEfKFvYe5f6atW8bi-46" vertex="1" connectable="0">
          <mxGeometry x="-0.2346" relative="1" as="geometry">
            <mxPoint as="offset" />
          </mxGeometry>
        </mxCell>
        <mxCell id="ikbvhD5BTmwbzsUKauvL-17" value="Receive Learning Materials" style="ellipse;whiteSpace=wrap;html=1;" parent="1" vertex="1">
          <mxGeometry x="353" y="-80" width="120" height="50" as="geometry" />
        </mxCell>
        <mxCell id="NkEJEfKFvYe5f6atW8bi-71" style="rounded=0;orthogonalLoop=1;jettySize=auto;html=1;entryX=1;entryY=0.8;entryDx=0;entryDy=0;entryPerimeter=0;" parent="1" source="ikbvhD5BTmwbzsUKauvL-18" target="ikbvhD5BTmwbzsUKauvL-3" edge="1">
          <mxGeometry relative="1" as="geometry" />
        </mxCell>
        <mxCell id="ikbvhD5BTmwbzsUKauvL-18" value="Receive Student Emotional Feedback" style="ellipse;whiteSpace=wrap;html=1;" parent="1" vertex="1">
          <mxGeometry x="353" y="650" width="120" height="50" as="geometry" />
        </mxCell>
        <mxCell id="NkEJEfKFvYe5f6atW8bi-40" style="rounded=0;orthogonalLoop=1;jettySize=auto;html=1;exitX=0.5;exitY=1;exitDx=0;exitDy=0;dashed=1;" parent="1" source="ikbvhD5BTmwbzsUKauvL-19" target="ikbvhD5BTmwbzsUKauvL-9" edge="1">
          <mxGeometry relative="1" as="geometry" />
        </mxCell>
        <mxCell id="NkEJEfKFvYe5f6atW8bi-41" value="&lt;font style=&quot;font-size: 9px;&quot;&gt;&amp;lt;&amp;lt;include&amp;gt;&amp;gt;&lt;/font&gt;" style="edgeLabel;html=1;align=center;verticalAlign=middle;resizable=0;points=[];" parent="NkEJEfKFvYe5f6atW8bi-40" vertex="1" connectable="0">
          <mxGeometry x="-0.4667" y="1" relative="1" as="geometry">
            <mxPoint as="offset" />
          </mxGeometry>
        </mxCell>
        <mxCell id="NkEJEfKFvYe5f6atW8bi-84" value="" style="rounded=0;orthogonalLoop=1;jettySize=auto;html=1;dashed=1;entryX=0.5;entryY=1;entryDx=0;entryDy=0;" parent="1" source="ikbvhD5BTmwbzsUKauvL-19" target="ikbvhD5BTmwbzsUKauvL-15" edge="1">
          <mxGeometry relative="1" as="geometry">
            <mxPoint x="413" y="150" as="targetPoint" />
          </mxGeometry>
        </mxCell>
        <mxCell id="NkEJEfKFvYe5f6atW8bi-85" value="&lt;font style=&quot;font-size: 9px;&quot;&gt;&amp;lt;&amp;lt;include&amp;gt;&amp;gt;&lt;/font&gt;" style="edgeLabel;html=1;align=center;verticalAlign=middle;resizable=0;points=[];" parent="NkEJEfKFvYe5f6atW8bi-84" vertex="1" connectable="0">
          <mxGeometry x="-0.0113" y="1" relative="1" as="geometry">
            <mxPoint x="-1" y="1" as="offset" />
          </mxGeometry>
        </mxCell>
        <mxCell id="ikbvhD5BTmwbzsUKauvL-19" value="Monitor Student Progress" style="ellipse;whiteSpace=wrap;html=1;" parent="1" vertex="1">
          <mxGeometry x="353" y="220" width="120" height="50" as="geometry" />
        </mxCell>
        <mxCell id="NkEJEfKFvYe5f6atW8bi-44" style="edgeStyle=orthogonalEdgeStyle;rounded=0;orthogonalLoop=1;jettySize=auto;html=1;exitX=0.5;exitY=0;exitDx=0;exitDy=0;endArrow=classicThin;endFill=1;dashed=1;" parent="1" source="ikbvhD5BTmwbzsUKauvL-20" target="ikbvhD5BTmwbzsUKauvL-14" edge="1">
          <mxGeometry relative="1" as="geometry" />
        </mxCell>
        <mxCell id="NkEJEfKFvYe5f6atW8bi-45" value="&lt;font style=&quot;font-size: 9px;&quot;&gt;&amp;lt;&amp;lt;extend&amp;gt;&amp;gt;&lt;/font&gt;" style="edgeLabel;html=1;align=center;verticalAlign=middle;resizable=0;points=[];" parent="NkEJEfKFvYe5f6atW8bi-44" vertex="1" connectable="0">
          <mxGeometry x="0.2982" relative="1" as="geometry">
            <mxPoint as="offset" />
          </mxGeometry>
        </mxCell>
        <mxCell id="ikbvhD5BTmwbzsUKauvL-20" value="Adapt Learning Path" style="ellipse;whiteSpace=wrap;html=1;" parent="1" vertex="1">
          <mxGeometry x="354" y="820" width="120" height="50" as="geometry" />
        </mxCell>
        <mxCell id="ikbvhD5BTmwbzsUKauvL-29" style="edgeStyle=orthogonalEdgeStyle;rounded=0;orthogonalLoop=1;jettySize=auto;html=1;exitX=0.5;exitY=1;exitDx=0;exitDy=0;" parent="1" source="ikbvhD5BTmwbzsUKauvL-20" target="ikbvhD5BTmwbzsUKauvL-20" edge="1">
          <mxGeometry relative="1" as="geometry" />
        </mxCell>
        <mxCell id="NkEJEfKFvYe5f6atW8bi-1" value="" style="endArrow=classicThin;html=1;rounded=0;entryX=0;entryY=0.5;entryDx=0;entryDy=0;endFill=1;exitX=1;exitY=0.1;exitDx=0;exitDy=0;exitPerimeter=0;" parent="1" target="ikbvhD5BTmwbzsUKauvL-16" edge="1" source="ikbvhD5BTmwbzsUKauvL-3">
          <mxGeometry width="50" height="50" relative="1" as="geometry">
            <mxPoint x="80" y="110" as="sourcePoint" />
            <mxPoint x="110" y="480" as="targetPoint" />
          </mxGeometry>
        </mxCell>
        <mxCell id="NkEJEfKFvYe5f6atW8bi-2" value="" style="endArrow=classicThin;html=1;rounded=0;entryX=0;entryY=0.5;entryDx=0;entryDy=0;endFill=1;exitX=1;exitY=0.3333333333333333;exitDx=0;exitDy=0;exitPerimeter=0;" parent="1" target="ikbvhD5BTmwbzsUKauvL-21" edge="1" source="ikbvhD5BTmwbzsUKauvL-3">
          <mxGeometry width="50" height="50" relative="1" as="geometry">
            <mxPoint x="80" y="120" as="sourcePoint" />
            <mxPoint x="10" y="595" as="targetPoint" />
          </mxGeometry>
        </mxCell>
        <mxCell id="NkEJEfKFvYe5f6atW8bi-6" style="rounded=0;orthogonalLoop=1;jettySize=auto;html=1;endArrow=classicThin;startFill=0;endFill=1;entryX=1;entryY=0.5;entryDx=0;entryDy=0;" parent="1" target="ikbvhD5BTmwbzsUKauvL-20" edge="1">
          <mxGeometry relative="1" as="geometry">
            <mxPoint x="730" y="370" as="sourcePoint" />
            <mxPoint x="720" y="370" as="targetPoint" />
          </mxGeometry>
        </mxCell>
        <mxCell id="NkEJEfKFvYe5f6atW8bi-7" value="" style="endArrow=classicThin;html=1;rounded=0;endFill=1;entryX=1;entryY=0.5;entryDx=0;entryDy=0;" parent="1" source="ikbvhD5BTmwbzsUKauvL-2" target="ikbvhD5BTmwbzsUKauvL-17" edge="1">
          <mxGeometry width="50" height="50" relative="1" as="geometry">
            <mxPoint x="750" y="310" as="sourcePoint" />
            <mxPoint x="680" y="370" as="targetPoint" />
            <Array as="points">
              <mxPoint x="750" y="280" />
            </Array>
          </mxGeometry>
        </mxCell>
        <mxCell id="NkEJEfKFvYe5f6atW8bi-8" value="" style="endArrow=classicThin;html=1;rounded=0;endFill=1;entryX=1;entryY=0.5;entryDx=0;entryDy=0;" parent="1" target="ikbvhD5BTmwbzsUKauvL-16" edge="1">
          <mxGeometry width="50" height="50" relative="1" as="geometry">
            <mxPoint x="740" y="280" as="sourcePoint" />
            <mxPoint x="846" y="420.0002597402597" as="targetPoint" />
          </mxGeometry>
        </mxCell>
        <mxCell id="NkEJEfKFvYe5f6atW8bi-11" value="" style="endArrow=classicThin;html=1;rounded=0;strokeColor=default;endFill=1;entryX=1;entryY=0.5;entryDx=0;entryDy=0;" parent="1" target="NkEJEfKFvYe5f6atW8bi-12" edge="1">
          <mxGeometry width="50" height="50" relative="1" as="geometry">
            <mxPoint x="740" y="320" as="sourcePoint" />
            <mxPoint x="670" y="490" as="targetPoint" />
          </mxGeometry>
        </mxCell>
        <mxCell id="NkEJEfKFvYe5f6atW8bi-12" value="Provide Emotional Feedback" style="ellipse;whiteSpace=wrap;html=1;" parent="1" vertex="1">
          <mxGeometry x="410" y="460" width="120" height="50" as="geometry" />
        </mxCell>
        <mxCell id="NkEJEfKFvYe5f6atW8bi-15" value="" style="endArrow=classicThin;html=1;rounded=0;endFill=1;entryX=1;entryY=0.5;entryDx=0;entryDy=0;" parent="1" target="ikbvhD5BTmwbzsUKauvL-19" edge="1">
          <mxGeometry width="50" height="50" relative="1" as="geometry">
            <mxPoint x="740" y="300" as="sourcePoint" />
            <mxPoint x="480" y="320" as="targetPoint" />
          </mxGeometry>
        </mxCell>
        <mxCell id="NkEJEfKFvYe5f6atW8bi-17" value="" style="endArrow=classicThin;html=1;rounded=0;entryX=1;entryY=0.5;entryDx=0;entryDy=0;endFill=1;" parent="1" target="ikbvhD5BTmwbzsUKauvL-15" edge="1">
          <mxGeometry width="50" height="50" relative="1" as="geometry">
            <mxPoint x="740" y="290" as="sourcePoint" />
            <mxPoint x="540" y="360" as="targetPoint" />
          </mxGeometry>
        </mxCell>
        <mxCell id="NkEJEfKFvYe5f6atW8bi-18" value="" style="endArrow=classicThin;html=1;rounded=0;endFill=1;entryX=1;entryY=0.5;entryDx=0;entryDy=0;" parent="1" target="ikbvhD5BTmwbzsUKauvL-14" edge="1">
          <mxGeometry width="50" height="50" relative="1" as="geometry">
            <mxPoint x="730" y="360" as="sourcePoint" />
            <mxPoint x="473" y="692.5" as="targetPoint" />
          </mxGeometry>
        </mxCell>
        <mxCell id="NkEJEfKFvYe5f6atW8bi-19" value="" style="endArrow=classicThin;html=1;rounded=0;endFill=1;entryX=0.965;entryY=0.629;entryDx=0;entryDy=0;entryPerimeter=0;" parent="1" target="ikbvhD5BTmwbzsUKauvL-9" edge="1">
          <mxGeometry width="50" height="50" relative="1" as="geometry">
            <mxPoint x="740" y="310" as="sourcePoint" />
            <mxPoint x="680" y="340" as="targetPoint" />
          </mxGeometry>
        </mxCell>
        <mxCell id="NkEJEfKFvYe5f6atW8bi-35" style="edgeStyle=orthogonalEdgeStyle;rounded=0;orthogonalLoop=1;jettySize=auto;html=1;exitX=0.5;exitY=1;exitDx=0;exitDy=0;" parent="1" source="ikbvhD5BTmwbzsUKauvL-18" target="ikbvhD5BTmwbzsUKauvL-18" edge="1">
          <mxGeometry relative="1" as="geometry" />
        </mxCell>
        <mxCell id="NkEJEfKFvYe5f6atW8bi-58" style="rounded=0;orthogonalLoop=1;jettySize=auto;html=1;entryX=0;entryY=0.5;entryDx=0;entryDy=0;dashed=1;" parent="1" source="ikbvhD5BTmwbzsUKauvL-21" target="ikbvhD5BTmwbzsUKauvL-19" edge="1">
          <mxGeometry relative="1" as="geometry" />
        </mxCell>
        <mxCell id="NkEJEfKFvYe5f6atW8bi-86" value="&lt;font style=&quot;font-size: 9px;&quot;&gt;&amp;lt;&amp;lt;include&amp;gt;&amp;gt;&lt;/font&gt;" style="edgeLabel;html=1;align=center;verticalAlign=middle;resizable=0;points=[];" parent="NkEJEfKFvYe5f6atW8bi-58" vertex="1" connectable="0">
          <mxGeometry x="0.2269" y="1" relative="1" as="geometry">
            <mxPoint as="offset" />
          </mxGeometry>
        </mxCell>
        <mxCell id="ikbvhD5BTmwbzsUKauvL-21" value="Review Student Progress" style="ellipse;whiteSpace=wrap;html=1;" parent="1" vertex="1">
          <mxGeometry x="180" y="100" width="120" height="50" as="geometry" />
        </mxCell>
        <mxCell id="NkEJEfKFvYe5f6atW8bi-81" style="edgeStyle=orthogonalEdgeStyle;rounded=0;orthogonalLoop=1;jettySize=auto;html=1;exitX=0.5;exitY=0;exitDx=0;exitDy=0;entryX=0.5;entryY=1;entryDx=0;entryDy=0;dashed=1;" parent="1" source="ikbvhD5BTmwbzsUKauvL-16" target="ikbvhD5BTmwbzsUKauvL-17" edge="1">
          <mxGeometry relative="1" as="geometry" />
        </mxCell>
        <mxCell id="NkEJEfKFvYe5f6atW8bi-82" value="&lt;font style=&quot;font-size: 9px;&quot;&gt;&amp;lt;&amp;lt;include&amp;gt;&amp;gt;&lt;/font&gt;" style="edgeLabel;html=1;align=center;verticalAlign=middle;resizable=0;points=[];" parent="NkEJEfKFvYe5f6atW8bi-81" vertex="1" connectable="0">
          <mxGeometry x="-0.4946" relative="1" as="geometry">
            <mxPoint y="-10" as="offset" />
          </mxGeometry>
        </mxCell>
        <mxCell id="ikbvhD5BTmwbzsUKauvL-16" value="Update Learning Materials" style="ellipse;whiteSpace=wrap;html=1;" parent="1" vertex="1">
          <mxGeometry x="353" y="10" width="120" height="55" as="geometry" />
        </mxCell>
        <mxCell id="NkEJEfKFvYe5f6atW8bi-66" value="" style="edgeStyle=none;orthogonalLoop=1;jettySize=auto;html=1;rounded=0;entryX=0;entryY=0.5;entryDx=0;entryDy=0;exitX=1;exitY=0.77;exitDx=0;exitDy=0;exitPerimeter=0;" parent="1" target="ikbvhD5BTmwbzsUKauvL-20" edge="1" source="ikbvhD5BTmwbzsUKauvL-1">
          <mxGeometry width="100" relative="1" as="geometry">
            <mxPoint x="80" y="550" as="sourcePoint" />
            <mxPoint x="130" y="530" as="targetPoint" />
            <Array as="points" />
          </mxGeometry>
        </mxCell>
        <mxCell id="ikbvhD5BTmwbzsUKauvL-9" value="Assess Student Performance" style="ellipse;whiteSpace=wrap;html=1;" parent="1" vertex="1">
          <mxGeometry x="353" y="300" width="120" height="50" as="geometry" />
        </mxCell>
        <mxCell id="NkEJEfKFvYe5f6atW8bi-78" style="edgeStyle=orthogonalEdgeStyle;rounded=0;orthogonalLoop=1;jettySize=auto;html=1;exitX=0.5;exitY=1;exitDx=0;exitDy=0;" parent="1" source="ikbvhD5BTmwbzsUKauvL-18" target="ikbvhD5BTmwbzsUKauvL-18" edge="1">
          <mxGeometry relative="1" as="geometry" />
        </mxCell>
        <mxCell id="NkEJEfKFvYe5f6atW8bi-93" value="" style="rounded=0;orthogonalLoop=1;jettySize=auto;html=1;dashed=1;entryX=0;entryY=0;entryDx=0;entryDy=0;" parent="1" target="NkEJEfKFvYe5f6atW8bi-12" edge="1">
          <mxGeometry relative="1" as="geometry">
            <mxPoint x="410" y="340" as="sourcePoint" />
            <mxPoint x="413" y="534.9999999999995" as="targetPoint" />
            <Array as="points">
              <mxPoint x="410" y="340" />
            </Array>
          </mxGeometry>
        </mxCell>
        <mxCell id="NkEJEfKFvYe5f6atW8bi-95" value="&amp;lt;&amp;lt;extend&amp;gt;&amp;gt;" style="edgeLabel;html=1;align=center;verticalAlign=middle;resizable=0;points=[];" parent="NkEJEfKFvYe5f6atW8bi-93" vertex="1" connectable="0">
          <mxGeometry x="-0.0234" y="-1" relative="1" as="geometry">
            <mxPoint as="offset" />
          </mxGeometry>
        </mxCell>
        <mxCell id="NkEJEfKFvYe5f6atW8bi-99" style="edgeStyle=orthogonalEdgeStyle;rounded=0;orthogonalLoop=1;jettySize=auto;html=1;" parent="1" source="ikbvhD5BTmwbzsUKauvL-21" target="ikbvhD5BTmwbzsUKauvL-2" edge="1">
          <mxGeometry relative="1" as="geometry">
            <Array as="points">
              <mxPoint x="765" y="100" />
            </Array>
          </mxGeometry>
        </mxCell>
      </root>
    </mxGraphModel>
  </diagram>
</mxfile>
